#!OML:ASF C:\Vicon Data\Big\jianyuan-12\jianyuan\Session 1\Capture.male.ASF
:FULLY-SPECIFIED
:DEGREES
237
root -13.880890 17.385203 -8.439632 -7.199497 -52.212906 18.252693
lowerback -6.465047 -2.568901 -10.243024 
upperback 3.102516 -2.280249 -1.962082 
thorax 7.289529 -1.518440 3.362198 
lowerneck 0.055352 -8.216482 -7.553717 
upperneck -5.657757 -10.468918 15.269327 
head -0.408870 -5.325588 5.750171 
rclavicle 0.000000 0.000000 
rhumerus -46.152038 -38.796171 -64.785498 
rradius 29.657317 
rwrist 42.078406 
rhand -20.219082 -5.318954 
rfingers 0.000000 
rthumb 6.128336 -35.210338 
lclavicle 0.000000 0.000000 
lhumerus -14.900945 25.844370 76.110213 
lradius 33.801929 
lwrist -38.026655 
lhand -12.960249 6.407704 
lfingers 0.000000 
lthumb 13.131524 35.974186 
rfemur -39.630166 -0.845867 11.951693 
rtibia 26.365420 
rfoot -17.483030 -12.040448 
rtoes 2.151501 
lfemur 9.188835 -2.392971 -29.393464 
ltibia 0.000000 
lfoot -21.867260 15.881943 
ltoes -33.923629 
238
root -13.940122 17.379775 -8.401029 -7.175142 -52.254712 18.283946
lowerback -6.612667 -2.622619 -10.236719 
upperback 3.097635 -2.336462 -1.934568 
thorax 7.378634 -1.550005 3.374233 
lowerneck 0.109163 -8.166873 -7.666890 
upperneck -5.701077 -10.400012 15.339293 
head -0.427634 -5.293496 5.795456 
rclavicle 0.000000 0.000000 
rhumerus -46.374648 -38.909969 -64.491695 
rradius 29.594637 
rwrist 42.280829 
rhand -20.125433 -5.258020 
rfingers 0.000000 
rthumb 6.218713 -35.146703 
lclavicle 0.000000 0.000000 
lhumerus -14.769273 25.563330 76.183320 
lradius 33.891125 
lwrist -37.902554 
lhand -13.031203 6.509299 
lfingers 0.000000 
lthumb 13.063138 36.080250 
rfemur -39.625940 -0.534192 11.691398 
rtibia 25.972193 
rfoot -17.589692 -12.243051 
rtoes 3.279518 
lfemur 9.377071 -2.309580 -29.384410 
ltibia 0.000000 
lfoot -21.841006 15.882756 
ltoes -34.264155 
239
root -13.997321 17.375340 -8.360230 -7.286776 -52.278202 18.438810
lowerback -6.658987 -2.667728 -10.297909 
upperback 3.075284 -2.386995 -1.926207 
thorax 7.392332 -1.577575 3.408456 
lowerneck 0.126058 -8.155794 -7.710843 
upperneck -5.703424 -10.389357 15.279684 
head -0.433676 -5.287766 5.785703 
rclavicle 0.000000 0.000000 
rhumerus -46.661677 -39.048544 -64.145124 
rradius 29.559575 
rwrist 42.620683 
rhand -20.063396 -5.074279 
rfingers 0.000000 
rthumb 6.278617 -34.961269 
lclavicle 0.000000 0.000000 
lhumerus -14.638996 25.567305 76.220141 
lradius 33.894890 
lwrist -38.169961 
lhand -13.107266 6.363007 
lfingers 0.000000 
lthumb 12.989813 35.938622 
rfemur -39.606927 -0.377793 11.416001 
rtibia 25.641035 
rfoot -17.520289 -12.431034 
rtoes 3.014418 
lfemur 9.612928 -2.226505 -29.469968 
ltibia 0.000000 
lfoot -21.821842 15.831595 
ltoes -34.478841 
240
root -14.056307 17.370344 -8.320160 -7.312309 -52.328275 18.510924
lowerback -6.718025 -2.719881 -10.285355 
upperback 3.046012 -2.455518 -1.895141 
thorax 7.405099 -1.611298 3.423073 
lowerneck 0.120727 -8.130297 -7.851993 
upperneck -5.682874 -10.361919 15.260756 
head -0.423493 -5.271229 5.802483 
rclavicle 0.000000 0.000000 
rhumerus -46.859389 -39.081728 -63.889135 
rradius 29.460500 
rwrist 42.831512 
rhand -20.043289 -5.109269 
rfingers 0.000000 
rthumb 6.298071 -34.995677 
lclavicle 0.000000 0.000000 
lhumerus -14.556542 25.312418 76.279175 
lradius 33.962610 
lwrist -37.944647 
lhand -12.919873 6.302421 
lfingers 0.000000 
lthumb 13.170398 35.866452 
rfemur -39.584272 -0.307894 11.275664 
rtibia 25.388735 
rfoot -17.608882 -12.483842 
rtoes 2.849271 
lfemur 9.829714 -2.126626 -29.495020 
ltibia 0.000000 
lfoot -21.649452 15.828021 
ltoes -34.914979 
241
root -14.119478 17.365151 -8.280548 -7.336356 -52.314214 18.603978
lowerback -6.822986 -2.739785 -10.314218 
upperback 3.023268 -2.464894 -1.921274 
thorax 7.443149 -1.616887 3.406308 
lowerneck 0.167811 -8.140258 -7.703414 
upperneck -5.701183 -10.376079 15.141811 
head -0.450557 -5.281522 5.745429 
rclavicle 0.000000 0.000000 
rhumerus -47.236935 -39.377392 -63.503412 
rradius 29.383727 
rwrist 43.048329 
rhand -19.920743 -5.131534 
rfingers 0.000000 
rthumb 6.416355 -35.014343 
lclavicle 0.000000 0.000000 
lhumerus -14.602424 24.378399 76.366135 
lradius 34.396626 
lwrist -37.446403 
lhand -12.794189 6.625490 
lfingers 0.000000 
lthumb 13.291585 36.181625 
rfemur -39.558564 -0.017931 10.958974 
rtibia 25.232467 
rfoot -18.051010 -12.802668 
rtoes 3.502879 
lfemur 10.030251 -2.090674 -29.533410 
ltibia 0.000000 
lfoot -21.463210 15.847001 
ltoes -35.444929 
242
root -14.183478 17.359844 -8.237663 -7.563241 -52.306732 18.838683
lowerback -6.843386 -2.845897 -10.452506 
upperback 3.033239 -2.594383 -1.857728 
thorax 7.496119 -1.691060 3.529516 
lowerneck 0.089497 -8.065515 -7.972892 
upperneck -5.657517 -10.284516 15.113074 
head -0.422601 -5.227622 5.777766 
rclavicle 0.000000 0.000000 
rhumerus -47.382757 -39.375512 -63.171874 
rradius 29.339743 
rwrist 43.520086 
rhand -19.880969 -5.017670 
rfingers 0.000000 
rthumb 6.454730 -34.899318 
lclavicle 0.000000 0.000000 
lhumerus -14.574382 24.392081 76.489668 
lradius 34.559254 
lwrist -37.388797 
lhand -12.815247 6.552548 
lfingers 0.000000 
lthumb 13.271343 36.110042 
rfemur -39.465403 -0.004739 10.719899 
rtibia 25.136853 
rfoot -18.244386 -12.988279 
rtoes 3.075557 
lfemur 10.340096 -2.020034 -29.668934 
ltibia 0.000000 
lfoot -21.399351 15.834225 
ltoes -35.740522 
243
root -14.253045 17.355206 -8.194279 -7.707979 -52.277591 18.911730
lowerback -6.854401 -2.843405 -10.427464 
upperback 3.056322 -2.585549 -1.910518 
thorax 7.522331 -1.685273 3.459549 
lowerneck 0.077292 -8.090789 -7.926605 
upperneck -5.584746 -10.323492 15.140401 
head -0.395832 -5.246009 5.774553 
rclavicle 0.000000 0.000000 
rhumerus -47.800336 -39.733402 -62.737968 
rradius 29.228059 
rwrist 43.996886 
rhand -19.798937 -4.912587 
rfingers 0.000000 
rthumb 6.533934 -34.791795 
lclavicle 0.000000 0.000000 
lhumerus -14.428516 24.090563 76.486435 
lradius 34.560954 
lwrist -37.604429 
lhand -12.841945 6.489746 
lfingers 0.000000 
lthumb 13.245530 36.048901 
rfemur -39.265772 -0.150402 10.680964 
rtibia 25.075543 
rfoot -18.348128 -13.105820 
rtoes 2.417701 
lfemur 10.722030 -1.976552 -29.694394 
ltibia 0.000000 
lfoot -21.232026 15.851945 
ltoes -36.189794 
